<svg width="32" height="22" viewBox="0 0 32 22" fill="none" xmlns="http://www.w3.org/2000/svg">
<path d="M31.9005 20.1141C31.9005 21.1556 31.0562 21.9999 30.0148 21.9999H1.88568C0.844241 22 0 21.1556 0 20.1141V1.88574C0 0.844304 0.844241 0 1.88568 0H30.0148C31.0563 0 31.9005 0.844304 31.9005 1.88574V20.1141Z" fill="#306FC5"/>
<path opacity="0.15" d="M1.34063 20.1141V1.88574C1.34063 0.844304 2.185 0 3.22644 0H1.88562C0.844241 0 0 0.844242 0 1.88574V20.1142C0 21.1557 0.844241 22 1.88568 22H3.2265C2.18506 22 1.34063 21.1556 1.34063 20.1141Z" fill="#202121"/>
<path d="M4.64746 8.80367H5.60061L5.12416 7.59058L4.64746 8.80367Z" fill="white"/>
<path d="M9.71631 12.876V13.4393H11.3194V14.046H9.71631V14.696H11.4926L12.3157 13.786L11.5359 12.876H9.71631Z" fill="white"/>
<path d="M22.2367 7.59058L21.7168 8.80367H22.7134L22.2367 7.59058Z" fill="white"/>
<path d="M14.3521 15.0422V12.5728L13.2256 13.7859L14.3521 15.0422Z" fill="white"/>
<path d="M16.4749 13.2661C16.4315 13.0061 16.258 12.876 15.998 12.876H15.0884V13.6558H16.0416C16.3015 13.6559 16.4749 13.526 16.4749 13.2661Z" fill="white"/>
<path d="M19.5075 13.5693C19.5941 13.5259 19.6376 13.3958 19.6376 13.2661C19.681 13.093 19.5941 13.0062 19.5075 12.9628C19.421 12.9194 19.2909 12.9194 19.1611 12.9194H18.2944V13.6127H19.161C19.2908 13.6127 19.421 13.6127 19.5075 13.5693Z" fill="white"/>
<path d="M25.7457 6.46411V6.98399L25.4859 6.46411H23.4499V6.98399L23.1899 6.46411H20.4171C19.9406 6.46411 19.5505 6.55084 19.2041 6.72411V6.46411H17.2546V6.50748V6.72411C17.038 6.5509 16.7781 6.46411 16.4315 6.46411H9.45638L8.97962 7.54723L8.50317 6.46411H6.9436H6.29369V6.98399L6.07705 6.46411H6.03368H4.17081L3.3042 8.50026L2.30787 10.7097L2.28955 10.7532H2.30787H4.51741H4.54508L4.56078 10.7097L4.82084 10.06H5.38402L5.64396 10.7532H8.1565V10.7097V10.2333L8.37326 10.7531H9.62953L9.84604 10.2333V10.7097V10.7532H10.8425H15.8248H15.8681V9.62668H15.955C16.0415 9.62668 16.0415 9.62668 16.0415 9.75672V10.7098H19.1609V10.4499C19.4208 10.58 19.8105 10.7098 20.3304 10.7098H21.6303L21.8902 10.0168H22.4966L22.7565 10.7098H25.2692V10.2767V10.0601L25.6593 10.7098H25.7457H25.7892H27.6954V6.46411H25.7458H25.7457ZM11.0593 10.1034H10.6259H10.366V9.84369V7.72057L10.3227 7.81994V7.81876L9.31482 10.1034H9.28292H9.05121H8.67632L7.63662 7.72057V10.1034H6.16372L5.86047 9.4536H4.38732L4.08402 10.1034H3.32245L4.60408 7.07072H5.68708L6.90011 9.97335V7.07072H7.15998H8.0479L8.06834 7.11415H8.06983L8.61644 8.30381L9.00897 9.19516L9.02286 9.15023L9.88928 7.07078H11.0592V10.1034H11.0593ZM14.0487 7.72057H12.359V8.28375H14.0053V8.89023H12.359V9.49696H14.0487V10.1466H11.6226V7.07078H14.0487V7.72057ZM17.1387 8.83771C17.1399 8.8387 17.1413 8.83939 17.1427 8.84032C17.159 8.85765 17.1731 8.87503 17.185 8.89166C17.268 9.00045 17.3351 9.16226 17.3385 9.39952C17.3387 9.40363 17.3389 9.40768 17.3392 9.41179C17.3392 9.41416 17.3396 9.41622 17.3396 9.41865C17.3396 9.42002 17.3395 9.42107 17.3395 9.42238C17.3405 9.44625 17.3411 9.47061 17.3411 9.49696V10.1035H16.6914V9.75678C16.6914 9.58351 16.6914 9.3235 16.5612 9.15023C16.5203 9.1093 16.4789 9.08232 16.4337 9.06313C16.3688 9.02107 16.2458 9.02039 16.0415 9.02039H15.2615V10.1035H14.5251V7.07078H16.1716C16.5612 7.07078 16.8213 7.07078 17.038 7.20075C17.2503 7.32823 17.3785 7.53963 17.3833 7.8744C17.3733 8.33546 17.0774 8.58842 16.8646 8.67372C16.8646 8.67372 17.0091 8.70282 17.1387 8.83771ZM18.5976 10.1034H17.861V7.07072H18.5976V10.1034ZM27.0458 10.1034H26.0925L24.7062 7.80717V9.71341L24.7016 9.70893V10.1053H23.9697V10.1035H23.2332L22.9732 9.45366H21.4568L21.1968 10.1467H20.3737C20.0273 10.1467 19.5938 10.0601 19.334 9.80021C19.0741 9.54027 18.9442 9.19366 18.9442 8.63054C18.9442 8.19733 19.0308 7.76381 19.334 7.41733C19.5505 7.1572 19.9406 7.07078 20.417 7.07078H21.1103V7.72057H20.417C20.1571 7.72057 20.0273 7.76375 19.8537 7.89396C19.724 8.02387 19.6373 8.28375 19.6373 8.58699C19.6373 8.93366 19.6806 9.15023 19.8537 9.3235C19.984 9.45366 20.1571 9.49703 20.3737 9.49703H20.6769L21.6733 7.11427H22.1067H22.7565L23.9697 10.0169V9.86887V8.89036V8.80381V7.11433H25.0527L26.3088 9.23709V7.11433H27.0456V10.1036H27.0458V10.1034Z" fill="white"/>
<path d="M16.5213 8.33373C16.5339 8.32021 16.5454 8.30489 16.5551 8.28732C16.5944 8.2252 16.6394 8.1133 16.6151 7.96059C16.6141 7.94657 16.6116 7.93361 16.6086 7.92108C16.6078 7.91759 16.6079 7.91454 16.607 7.91105L16.6065 7.91111C16.585 7.83691 16.53 7.7913 16.4751 7.76364C16.3882 7.72046 16.2582 7.72046 16.1283 7.72046H15.2617V8.41373H16.1283C16.2582 8.41373 16.3883 8.41373 16.4751 8.37031C16.4881 8.3637 16.4997 8.35473 16.5108 8.34457L16.5109 8.34514C16.511 8.34507 16.5154 8.34046 16.5213 8.33373Z" fill="white"/>
<path d="M29.6018 14.4359C29.6018 14.1327 29.5153 13.8293 29.3854 13.6127V11.6632H29.3834V11.5331C29.3834 11.5331 27.5675 11.5331 27.2972 11.5331C27.0271 11.5331 26.6992 11.793 26.6992 11.793V11.5331H24.7064C24.403 11.5331 24.0133 11.6198 23.8398 11.793V11.5331H20.2874V11.6632V11.7929C20.0277 11.5764 19.5507 11.533 19.3343 11.533H16.9947V11.6632V11.7928C16.7782 11.5764 16.258 11.533 15.998 11.533H13.399L12.7923 12.1829L12.229 11.533H12.0477H11.7525H8.33008V11.6631V12.0054V15.9089H12.1426L12.769 15.2823L13.312 15.9089H13.3555H15.5522H15.6518H15.6952H15.7383V15.4757V14.9125H15.955C16.258 14.9125 16.6481 14.9125 16.9514 14.7823V15.8653V15.9522H18.901V15.8653V14.8257H18.9874C19.1176 14.8257 19.1176 14.8257 19.1176 14.9557V15.8653V15.9522H25.0094C25.3996 15.9522 25.7892 15.8653 26.0058 15.692V15.8653V15.9522H27.8689C28.2585 15.9522 28.6488 15.9089 28.9087 15.7355C29.3076 15.4962 29.559 15.0725 29.5964 14.5673C29.5981 14.5524 29.6003 14.5374 29.6017 14.5224L29.5991 14.52C29.6007 14.4919 29.6018 14.4642 29.6018 14.4359ZM15.9551 14.176H15.0884V14.3057V14.5657V14.8258V15.3023H13.6644L12.8356 14.3491L12.8328 14.3523L12.7923 14.3057L11.8392 15.3023H9.06653V12.2697H11.8826L12.6519 13.1124L12.8137 13.2889L12.8356 13.2661L13.7455 12.2698H16.0416C16.4872 12.2698 16.9862 12.3798 17.1753 12.8332C17.198 12.9229 17.2112 13.0227 17.2112 13.1361C17.2112 14.0026 16.6047 14.176 15.9551 14.176ZM20.2874 14.1326C20.3739 14.2623 20.4173 14.4358 20.4173 14.6959V15.3023H19.6809V14.9125C19.6809 14.7389 19.6809 14.4358 19.5508 14.3057C19.4643 14.176 19.2908 14.176 19.0311 14.176H18.2513V15.3023H17.5149V12.2264H19.161C19.5074 12.2264 19.8106 12.2264 20.0277 12.3562C20.2441 12.4863 20.4173 12.7029 20.4173 13.0495C20.4173 13.526 20.1142 13.7859 19.8975 13.8727C20.1142 13.959 20.2441 14.0459 20.2874 14.1326ZM23.2768 12.876H21.587V13.4392H23.2333V14.0459H21.587V14.6525H23.2768V15.3023H20.8507V12.2263H23.2768V12.876ZM25.0963 15.3023H23.7099V14.6525H25.0963C25.226 14.6525 25.3129 14.6525 25.3997 14.5658C25.4431 14.5224 25.4861 14.4359 25.4861 14.3492C25.4861 14.2623 25.4431 14.1761 25.3997 14.1327C25.3562 14.0894 25.2694 14.046 25.1395 14.046C24.4463 14.0026 23.6232 14.046 23.6232 13.093C23.6232 12.6597 23.8831 12.1831 24.663 12.1831H26.0926V12.9194H24.7497C24.6198 12.9194 24.533 12.9194 24.4462 12.9628C24.3598 13.0062 24.3598 13.093 24.3598 13.1795C24.3598 13.3095 24.4462 13.3529 24.5329 13.3959C24.6198 13.4393 24.7063 13.4393 24.7928 13.4393H25.1828C25.5728 13.4393 25.8327 13.526 26.0059 13.6993C26.136 13.8294 26.2226 14.046 26.2226 14.3492C26.2226 14.9988 25.8327 15.3023 25.0963 15.3023ZM28.8221 14.9988C28.649 15.1724 28.3456 15.3023 27.9122 15.3023H26.5261V14.6525H27.9121C28.0421 14.6525 28.129 14.6525 28.2155 14.5658C28.2587 14.5224 28.3022 14.4359 28.3022 14.3492C28.3022 14.2623 28.2587 14.1761 28.2155 14.1327C28.1722 14.0894 28.0856 14.046 27.9556 14.046C27.2626 14.0026 26.4393 14.046 26.4393 13.093C26.4393 12.6813 26.6749 12.3093 27.2559 12.1988C27.3253 12.1892 27.3987 12.1831 27.4791 12.1831H28.9089V12.9194H27.9556H27.6091H27.5658C27.4357 12.9194 27.3492 12.9194 27.2626 12.9628C27.219 13.0062 27.1757 13.093 27.1757 13.1795C27.1757 13.3095 27.219 13.3529 27.3492 13.3959C27.4357 13.4393 27.5224 13.4393 27.6091 13.4393H27.6522H27.9989C28.1883 13.4393 28.3314 13.4627 28.4625 13.5087C28.5825 13.5522 28.9797 13.7299 29.0686 14.1937C29.0763 14.2423 29.082 14.293 29.082 14.3492C29.082 14.6092 28.9953 14.8257 28.8221 14.9988Z" fill="white"/>
</svg>
