<svg width="32" height="22" viewBox="0 0 32 22" fill="none" xmlns="http://www.w3.org/2000/svg">
<path d="M31.9005 20.1142C31.9005 21.1557 31.0562 22 30.0148 22H1.88568C0.844241 22 0 21.1556 0 20.1142V1.88574C0 0.844242 0.844241 0 1.88568 0H30.0147C31.0562 0 31.9004 0.844304 31.9004 1.88574L31.9005 20.1142Z" fill="#34495E"/>
<path opacity="0.15" d="M1.34063 20.1142V1.88574C1.34063 0.844242 2.185 0 3.22644 0H1.88562C0.844241 0 0 0.844366 0 1.88574V20.1142C0 21.1557 0.844241 22 1.88568 22H3.2265C2.18506 22 1.34063 21.1556 1.34063 20.1142Z" fill="#202121"/>
<path d="M19.2766 10.9877C19.2792 10.3873 19.0541 9.78607 18.601 9.33299C18.147 8.87897 17.5443 8.65404 16.9427 8.65766C16.9398 8.65766 16.937 8.65747 16.934 8.65747C15.6276 8.65747 14.5913 9.69349 14.5913 11.0003C14.5913 12.2942 15.6403 13.3429 16.934 13.3429C18.2408 13.3429 19.2769 12.3067 19.2769 11.0003C19.2769 10.996 19.2766 10.9919 19.2766 10.9877Z" fill="#F26E21"/>
<path d="M14.1557 11.9913C13.8055 12.3418 13.4824 12.4787 13.1343 12.4862C12.2862 12.4786 11.6627 11.8505 11.6627 10.9551C11.6627 10.5044 11.8334 10.135 12.1037 9.81941C12.3573 9.57873 12.6839 9.42321 13.0594 9.42321C13.4649 9.42321 13.7804 9.55835 14.1406 9.91879V8.88259C13.7804 8.70246 13.4648 8.6123 13.0594 8.6123C12.4867 8.65324 11.9467 8.88464 11.5325 9.24801C11.4131 9.35542 11.2987 9.47399 11.2017 9.60969C10.8992 10.0018 10.7163 10.482 10.7163 11.0004C10.7163 12.3067 11.7529 13.2979 13.0594 13.2979C13.0657 13.2979 13.072 13.2973 13.0782 13.2973C13.087 13.2974 13.0956 13.2979 13.1044 13.2979C13.4647 13.2979 13.7804 13.208 14.1858 13.0277L14.1557 11.9913C14.1405 12.0065 14.1708 12.0206 14.1557 12.035V11.9913Z" fill="#E7E8E3"/>
<path d="M22.2345 9.25747L21.2141 11.766L20.0427 8.79224H19.0967L20.9438 13.3427H21.4394L23.3767 8.79224H22.4307L22.2345 9.25747Z" fill="#E7E8E3"/>
<path d="M23.7373 10.7747V13.2078H26.1703H26.2152V12.4866H25.4493H24.6384V11.6759V11.2705H26.1703V10.5043H24.6384V9.55828H26.2152V8.79224H23.7373V10.7747Z" fill="#E7E8E3"/>
<path d="M3.37308 8.79224H2.11133V13.2078H3.37302C4.04872 13.2078 4.54424 13.0274 4.94972 12.712C5.44524 12.3065 5.76076 11.6759 5.76076 11.0002C5.76082 9.6933 4.81452 8.79224 3.37308 8.79224ZM4.40922 12.1265C4.13888 12.3516 3.77844 12.4866 3.23775 12.4866H2.96741V9.55822H3.19264C3.73333 9.55822 4.09377 9.64832 4.36418 9.91854C4.6795 10.1887 4.85982 10.5944 4.85982 11C4.90486 11.4055 4.72468 11.8559 4.40922 12.1265Z" fill="#E7E8E3"/>
<path d="M7.02252 8.79199H6.1665V13.2074H7.02252V8.79199Z" fill="#E7E8E3"/>
<path d="M9.18513 10.5045C8.64456 10.3243 8.50924 10.189 8.50924 9.96383C8.50924 9.69348 8.77958 9.46825 9.14002 9.46825C9.41036 9.46825 9.6356 9.5584 9.8609 9.82875L10.3116 9.24308C9.95099 8.92756 9.50064 8.74756 9.005 8.74756C8.23889 8.74756 7.60811 9.28825 7.60811 10.0089C7.60811 10.6398 7.8787 10.9101 8.68955 11.2255C9.04999 11.3604 9.18519 11.4056 9.27547 11.4957C9.45535 11.5857 9.54563 11.7661 9.54563 11.9461C9.54563 12.3066 9.27547 12.577 8.86974 12.577C8.46388 12.577 8.10375 12.3518 7.9235 11.9913L7.38281 12.5319C7.78848 13.1176 8.28406 13.3879 8.91485 13.3879C9.81585 13.3879 10.4463 12.8022 10.4463 11.9461C10.4464 11.1803 10.1763 10.865 9.18513 10.5045Z" fill="#E7E8E3"/>
<path d="M28.6481 11.3603C29.3237 11.2253 29.6843 10.7746 29.6843 10.099C29.6843 9.28813 29.0985 8.79224 28.1075 8.79224H26.8008V13.2078H27.6568V11.4504H27.7921L29.0083 13.2078H30.0447L28.6481 11.3603ZM27.927 10.8196H27.6569V9.46813H27.927C28.4677 9.46813 28.7832 9.6933 28.7832 10.1441C28.7832 10.5945 28.4678 10.8196 27.927 10.8196Z" fill="#E7E8E3"/>
</svg>
