<svg width="32" height="22" viewBox="0 0 32 22" fill="none" xmlns="http://www.w3.org/2000/svg">
<path d="M31.9005 20.1142C31.9005 21.1557 31.0562 22 30.0148 22H1.88568C0.844241 22 0 21.1556 0 20.1142V1.88574C0 0.844242 0.844241 0 1.88568 0H30.0148C31.0563 0 31.9005 0.844304 31.9005 1.88574V20.1142Z" fill="#F4F4F4"/>
<path opacity="0.15" d="M1.34063 20.1142V1.88574C1.34063 0.844242 2.185 0 3.22644 0H1.88562C0.844241 0 0 0.844242 0 1.88574V20.1142C0 21.1557 0.844241 22 1.88568 22H3.2265C2.18506 22 1.34063 21.1556 1.34063 20.1142Z" fill="#202121"/>
<path d="M20.7125 4.30013C20.0134 3.50106 18.7152 3.10181 16.9178 3.10181H11.9244C11.6247 3.10181 11.3253 3.40162 11.2254 3.70075L9.22803 16.7829C9.22803 17.0829 9.42784 17.2822 9.62722 17.2822H12.723L13.5219 12.3891V12.5888C13.622 12.289 13.9213 11.9898 14.2211 11.9898H15.7193C18.6152 11.9898 20.8117 10.7914 21.5109 7.49554V7.19597C21.4111 7.19597 21.4111 7.19597 21.5109 7.19597C21.6109 5.89808 21.4111 5.09901 20.7125 4.30013Z" fill="#263B80"/>
<path d="M21.5109 7.49577V7.1962C21.5116 7.1863 21.512 7.17708 21.5127 7.16723C21.3351 7.04381 21.1687 6.9577 21.0416 6.90187C20.4352 6.65134 19.8152 6.60411 19.5289 6.59695L19.5274 6.5957H18.0711C18.0711 6.5957 18.0723 6.59645 18.073 6.59689H15.0181C14.4987 6.61577 14.3556 7.03452 14.3181 7.2167L13.522 12.3894V12.5121V12.5891C13.622 12.2892 13.9213 11.99 14.2212 11.99H15.7193C18.6152 11.99 20.8117 10.7916 21.5109 7.49577Z" fill="#232C65"/>
<path d="M22.4921 8.43379C22.2664 7.81117 21.8671 7.41335 21.5128 7.16699C21.5122 7.17684 21.5117 7.18606 21.5111 7.19597V7.49553C20.8119 10.7914 18.6154 11.9898 15.7195 11.9898H14.2213C13.9215 11.9898 13.6222 12.2889 13.5221 12.5888V12.5118C13.5107 12.5374 13.5002 12.5631 13.4916 12.5888L12.9274 16.031L12.7231 17.2823L12.4932 18.6805C12.4932 18.8801 12.5932 19.0795 12.8924 19.0795H15.3817C15.8825 19.0795 16.0398 18.6899 16.0882 18.48L16.1093 18.3495L16.5873 15.3847C16.5873 15.3847 16.6496 14.6857 17.3316 14.6857H17.5863C20.0829 14.6857 22.0802 13.6873 22.5795 10.6915C22.7183 9.85629 22.7114 9.07043 22.4921 8.43379Z" fill="#139AD6"/>
</svg>
