<svg width="32" height="22" viewBox="0 0 32 22" fill="none" xmlns="http://www.w3.org/2000/svg">
<path d="M31.9005 20.1141C31.9005 21.1556 31.0562 21.9999 30.0148 21.9999H1.88568C0.844241 22 0 21.1556 0 20.1141V1.88574C0 0.844242 0.844241 0 1.88568 0H30.0148C31.0563 0 31.9005 0.844304 31.9005 1.88574V20.1141Z" fill="white"/>
<path d="M7.08036 11.1268L6.33132 7.53353C6.20328 7.03801 5.83069 6.8906 5.36514 6.87109H1.93098L1.90039 7.03527C4.57511 7.68368 6.3449 9.24793 7.08036 11.1268Z" fill="#F79F1A"/>
<path d="M15.0373 6.94336H12.8184L11.4326 15.0759H13.6478L15.0373 6.94336Z" fill="#059BBF"/>
<path d="M8.43285 15.0678L11.9226 6.94897H9.57423L7.40332 12.4959L7.1716 11.6584C6.74605 10.6509 5.52985 9.2007 4.10205 8.2878L6.08649 15.0706L8.43285 15.0678Z" fill="#059BBF"/>
<path d="M21.3663 12.4174C21.3745 11.4941 20.7817 10.7898 19.5042 10.2081C18.7278 9.83244 18.2546 9.58191 18.2602 9.20066C18.2602 8.86384 18.661 8.50203 19.5293 8.50203C20.2558 8.49088 20.7789 8.64951 21.1881 8.81374L21.3886 8.90564L21.6893 7.14383C21.2495 6.97953 20.5619 6.8042 19.702 6.8042C17.5116 6.8042 15.9697 7.90645 15.9557 9.48733C15.9418 10.6564 17.058 11.3077 17.8985 11.6972C18.7612 12.0944 19.0507 12.3485 19.0452 12.7048C19.0396 13.2495 18.3576 13.4979 17.7203 13.4979C16.8324 13.4979 16.362 13.3755 15.6325 13.0716L15.349 12.9414L15.0376 14.7637C15.5549 14.9899 16.5122 15.1875 17.506 15.1957C19.8354 15.1957 21.3496 14.1075 21.3663 12.4174Z" fill="#059BBF"/>
<path d="M24.0023 13.8571C24.2556 13.8571 26.5183 13.8599 26.8413 13.8599C26.9081 14.1431 27.1113 15.0789 27.1113 15.0789H29.1681L27.3728 6.9519H25.6612C25.1295 6.9519 24.7344 7.09664 24.5005 7.62537L21.208 15.0789H23.5377C23.5376 15.0789 23.916 14.0771 24.0023 13.8571ZM25.5219 9.91878C25.5109 9.94102 25.7057 9.44843 25.817 9.14226L25.9672 9.84357C25.9672 9.84357 26.3904 11.7864 26.4794 12.1927H24.6396C24.8234 11.7252 25.5219 9.91878 25.5219 9.91878Z" fill="#059BBF"/>
<path d="M30.0148 0H1.88568C0.844241 0 0 0.844242 0 1.88574V3.84289H31.9005V1.88574C31.9005 0.844242 31.0563 0 30.0148 0Z" fill="#059BBF"/>
<path d="M30.0148 21.9999H1.88568C0.844241 21.9999 0 21.1556 0 20.1141V18.157H31.9005V20.1141C31.9005 21.1556 31.0563 21.9999 30.0148 21.9999Z" fill="#F79F1A"/>
<path opacity="0.15" d="M1.34063 20.1141V1.88574C1.34063 0.844242 2.18493 0 3.22644 0H1.88562C0.844241 0 0 0.844242 0 1.88574V20.1142C0 21.1557 0.844241 22 1.88568 22H3.2265C2.185 22 1.34063 21.1556 1.34063 20.1141Z" fill="#202121"/>
</svg>
