<svg width="25" height="24" viewBox="0 0 25 24" fill="none" xmlns="http://www.w3.org/2000/svg">
<path d="M20.6251 8.00001L14.6251 2.74001C14.0751 2.24805 13.363 1.97607 12.6251 1.97607C11.8872 1.97607 11.1751 2.24805 10.6251 2.74001L4.62509 8.00001C4.30746 8.28408 4.05399 8.63256 3.88157 9.02225C3.70914 9.41194 3.62171 9.83389 3.62509 10.26V19C3.62509 19.7957 3.94117 20.5587 4.50377 21.1213C5.06638 21.6839 5.82945 22 6.62509 22H18.6251C19.4207 22 20.1838 21.6839 20.7464 21.1213C21.309 20.5587 21.6251 19.7957 21.6251 19V10.25C21.6271 9.82557 21.5389 9.40555 21.3666 9.01769C21.1942 8.62983 20.9415 8.28296 20.6251 8.00001ZM14.6251 20H10.6251V15C10.6251 14.7348 10.7305 14.4804 10.918 14.2929C11.1055 14.1054 11.3599 14 11.6251 14H13.6251C13.8903 14 14.1447 14.1054 14.3322 14.2929C14.5197 14.4804 14.6251 14.7348 14.6251 15V20ZM19.6251 19C19.6251 19.2652 19.5197 19.5196 19.3322 19.7071C19.1447 19.8946 18.8903 20 18.6251 20H16.6251V15C16.6251 14.2044 16.309 13.4413 15.7464 12.8787C15.1838 12.3161 14.4207 12 13.6251 12H11.6251C10.8294 12 10.0664 12.3161 9.50377 12.8787C8.94116 13.4413 8.62509 14.2044 8.62509 15V20H6.62509C6.35988 20 6.10552 19.8946 5.91799 19.7071C5.73045 19.5196 5.62509 19.2652 5.62509 19V10.25C5.62527 10.108 5.65569 9.9677 5.71431 9.83839C5.77294 9.70907 5.85843 9.59372 5.9651 9.50001L11.9651 4.25001C12.1476 4.08969 12.3822 4.00127 12.6251 4.00127C12.868 4.00127 13.1026 4.08969 13.2851 4.25001L19.2851 9.50001C19.3918 9.59372 19.4773 9.70907 19.5359 9.83839C19.5945 9.9677 19.6249 10.108 19.6251 10.25V19Z" fill="#FCB514"/>
</svg>
