<svg width="25" height="24" viewBox="0 0 25 24" fill="none" xmlns="http://www.w3.org/2000/svg">
<path fill-rule="evenodd" clip-rule="evenodd" d="M16.6582 14.608C16.9241 14.608 17.1791 14.714 17.3667 14.9024L21.5503 19.1032C21.9832 19.5359 21.9832 20.2429 21.5503 20.6755C21.1174 21.1082 20.41 21.1082 19.9771 20.6755L15.7829 16.4838C15.5953 16.2962 15.4898 16.0418 15.4898 15.7765V15.4804C15.4898 15.4014 15.4592 15.3255 15.4043 15.2686C15.2923 15.1525 15.1095 15.1443 14.9827 15.2442C13.5278 16.39 11.6045 16.9646 9.56661 16.6235C6.63139 16.1275 4.28744 13.6794 3.92845 10.7248C3.37942 6.26128 7.13819 2.50471 11.6044 3.05342C14.5607 3.41219 17.0102 5.75477 17.5065 8.68827C17.8478 10.7249 17.2729 12.647 16.1265 14.101C16.0266 14.2278 16.0347 14.4107 16.1509 14.5227C16.2077 14.5774 16.2836 14.608 16.3624 14.608H16.6582ZM5.98734 9.85954C5.98734 12.487 8.10956 14.608 10.7386 14.608C13.3676 14.608 15.4898 12.487 15.4898 9.85954C15.4898 7.23206 13.3676 5.11108 10.7386 5.11108C8.10956 5.11108 5.98734 7.23206 5.98734 9.85954Z" fill="#747B84"/>
</svg>
