<svg width="19" height="21" viewBox="0 0 19 21" fill="none" xmlns="http://www.w3.org/2000/svg">
<path d="M17.625 7.00001L11.625 1.74001C11.075 1.24805 10.3629 0.976074 9.62497 0.976074C8.88704 0.976074 8.17499 1.24805 7.62497 1.74001L1.62497 7.00001C1.30734 7.28408 1.05387 7.63256 0.881445 8.02225C0.709016 8.41194 0.621585 8.83389 0.624973 9.26001V18C0.624973 18.7957 0.941043 19.5587 1.50365 20.1213C2.06626 20.6839 2.82932 21 3.62497 21H15.625C16.4206 21 17.1837 20.6839 17.7463 20.1213C18.3089 19.5587 18.625 18.7957 18.625 18V9.25001C18.6269 8.82557 18.5388 8.40555 18.3664 8.01769C18.1941 7.62983 17.9413 7.28296 17.625 7.00001ZM11.625 19H7.62497V14C7.62497 13.7348 7.73033 13.4804 7.91787 13.2929C8.1054 13.1054 8.35976 13 8.62497 13H10.625C10.8902 13 11.1445 13.1054 11.3321 13.2929C11.5196 13.4804 11.625 13.7348 11.625 14V19ZM16.625 18C16.625 18.2652 16.5196 18.5196 16.3321 18.7071C16.1445 18.8946 15.8902 19 15.625 19H13.625V14C13.625 13.2044 13.3089 12.4413 12.7463 11.8787C12.1837 11.3161 11.4206 11 10.625 11H8.62497C7.82932 11 7.06626 11.3161 6.50365 11.8787C5.94104 12.4413 5.62497 13.2044 5.62497 14V19H3.62497C3.35976 19 3.1054 18.8946 2.91787 18.7071C2.73033 18.5196 2.62497 18.2652 2.62497 18V9.25001C2.62515 9.10802 2.65557 8.9677 2.71419 8.83839C2.77281 8.70907 2.8583 8.59372 2.96497 8.50001L8.96497 3.25001C9.14746 3.08969 9.38206 3.00127 9.62497 3.00127C9.86788 3.00127 10.1025 3.08969 10.285 3.25001L16.285 8.50001C16.3916 8.59372 16.4771 8.70907 16.5358 8.83839C16.5944 8.9677 16.6248 9.10802 16.625 9.25001V18Z" fill="#747B84"/>
</svg>
