<svg width="25" height="24" viewBox="0 0 25 24" fill="none" xmlns="http://www.w3.org/2000/svg">
<path d="M12.375 2C10.4355 2.00369 8.53893 2.57131 6.91628 3.63374C5.29362 4.69617 4.01494 6.20754 3.23599 7.98377C2.45704 9.76 2.21143 11.7244 2.52908 13.6378C2.84673 15.5511 3.71393 17.3308 5.02505 18.76C5.96147 19.775 7.09799 20.5851 8.36299 21.1392C9.62798 21.6933 10.994 21.9793 12.375 21.9793C13.7561 21.9793 15.1221 21.6933 16.3871 21.1392C17.6521 20.5851 18.7886 19.775 19.725 18.76C21.0362 17.3308 21.9034 15.5511 22.221 13.6378C22.5387 11.7244 22.2931 9.76 21.5141 7.98377C20.7352 6.20754 19.4565 4.69617 17.8338 3.63374C16.2112 2.57131 14.3146 2.00369 12.375 2ZM12.375 20C10.3035 19.9969 8.31396 19.1903 6.82505 17.75C7.27709 16.6495 8.04608 15.7083 9.0343 15.0459C10.0225 14.3835 11.1854 14.0298 12.375 14.0298C13.5647 14.0298 14.7276 14.3835 15.7158 15.0459C16.704 15.7083 17.473 16.6495 17.925 17.75C16.4361 19.1903 14.4466 19.9969 12.375 20ZM10.375 10C10.375 9.60444 10.4923 9.21776 10.7121 8.88886C10.9319 8.55996 11.2442 8.30362 11.6097 8.15224C11.9751 8.00087 12.3773 7.96126 12.7652 8.03843C13.1532 8.1156 13.5096 8.30608 13.7893 8.58579C14.069 8.86549 14.2594 9.22186 14.3366 9.60982C14.4138 9.99778 14.3742 10.3999 14.2228 10.7654C14.0714 11.1308 13.8151 11.4432 13.4862 11.6629C13.1573 11.8827 12.7706 12 12.375 12C11.8446 12 11.3359 11.7893 10.9608 11.4142C10.5858 11.0391 10.375 10.5304 10.375 10ZM19.285 16C18.3916 14.4718 17.0165 13.283 15.375 12.62C15.8842 12.0427 16.216 11.3307 16.3305 10.5694C16.4451 9.80822 16.3375 9.03011 16.0208 8.3285C15.7041 7.62688 15.1916 7.03156 14.545 6.61397C13.8983 6.19637 13.1448 5.97425 12.375 5.97425C11.6053 5.97425 10.8518 6.19637 10.2051 6.61397C9.55846 7.03156 9.04602 7.62688 8.7293 8.3285C8.41258 9.03011 8.30504 9.80822 8.41958 10.5694C8.53412 11.3307 8.86588 12.0427 9.37505 12.62C7.73365 13.283 6.35852 14.4718 5.46505 16C4.75299 14.7871 4.37677 13.4065 4.37505 12C4.37505 9.87827 5.2179 7.84344 6.71819 6.34315C8.21849 4.84285 10.2533 4 12.375 4C14.4968 4 16.5316 4.84285 18.0319 6.34315C19.5322 7.84344 20.375 9.87827 20.375 12C20.3733 13.4065 19.9971 14.7871 19.285 16Z" fill="#747B84"/>
</svg>
