<svg width="28" height="29" viewBox="0 0 28 29" fill="none" xmlns="http://www.w3.org/2000/svg">
<path d="M26.4444 9.22341L17.1111 1.86821C16.2556 1.1803 15.1479 0.799988 14 0.799988C12.8522 0.799988 11.7445 1.1803 10.889 1.86821L1.55569 9.22341C1.0616 9.62064 0.667321 10.1079 0.399101 10.6528C0.130881 11.1978 -0.00512172 11.7878 0.000147456 12.3836V24.605C0.000147456 25.7176 0.491809 26.7846 1.36697 27.5713C2.24214 28.358 3.42911 28.8 4.66678 28.8H23.3333C24.571 28.8 25.758 28.358 26.6331 27.5713C27.5083 26.7846 27.9999 25.7176 27.9999 24.605V12.3696C28.003 11.7761 27.8659 11.1888 27.5978 10.6465C27.3296 10.1041 26.9365 9.61908 26.4444 9.22341ZM17.1111 26.0033H10.889V19.0117C10.889 18.6408 11.0528 18.2852 11.3446 18.0229C11.6363 17.7607 12.0319 17.6134 12.4445 17.6134H15.5556C15.9681 17.6134 16.3638 17.7607 16.6555 18.0229C16.9472 18.2852 17.1111 18.6408 17.1111 19.0117V26.0033ZM24.8889 24.605C24.8889 24.9759 24.725 25.3315 24.4333 25.5938C24.1415 25.856 23.7459 26.0033 23.3333 26.0033H20.2222V19.0117C20.2222 17.8991 19.7306 16.8321 18.8554 16.0454C17.9802 15.2587 16.7933 14.8167 15.5556 14.8167H12.4445C11.2068 14.8167 10.0199 15.2587 9.14469 16.0454C8.26953 16.8321 7.77787 17.8991 7.77787 19.0117V26.0033H4.66678C4.25423 26.0033 3.85857 25.856 3.56685 25.5938C3.27512 25.3315 3.11124 24.9759 3.11124 24.605V12.3696C3.11152 12.1711 3.15883 11.9749 3.25002 11.7941C3.34121 11.6132 3.47419 11.4519 3.64012 11.3209L12.9734 3.97969C13.2573 3.75551 13.6222 3.63188 14 3.63188C14.3779 3.63188 14.7428 3.75551 15.0267 3.97969L24.36 11.3209C24.5259 11.4519 24.6589 11.6132 24.7501 11.7941C24.8413 11.9749 24.8886 12.1711 24.8889 12.3696V24.605Z" fill="#747B84"/>
</svg>
