<svg width="23" height="25" viewBox="0 0 23 25" fill="none" xmlns="http://www.w3.org/2000/svg">
<path d="M21.2391 0.791382C21.1717 0.7047 21.0853 0.634678 20.9865 0.586724C20.8877 0.538771 20.7792 0.51417 20.6694 0.514825C20.5048 0.515163 20.3451 0.570669 20.2158 0.672465L16.5625 3.57077L16.6593 0.75266C16.6626 0.657144 16.647 0.56192 16.6135 0.472424C16.58 0.382927 16.5291 0.300912 16.4639 0.231061C16.3986 0.16121 16.3203 0.104892 16.2333 0.0653196C16.1463 0.0257473 16.0524 0.00369429 15.9569 0.000425679C15.8614 -0.00284294 15.7662 0.0127382 15.6767 0.0462709C15.5872 0.0798035 15.5051 0.130638 15.4353 0.195867C15.3654 0.261096 15.3091 0.33944 15.2695 0.426435C15.23 0.513429 15.2079 0.607366 15.2046 0.702882L15 6.6682L21.1202 1.81188C21.2711 1.69218 21.3684 1.51752 21.3906 1.32621C21.4129 1.1349 21.3585 0.942564 21.2391 0.791382Z" fill="#747B84"/>
<path d="M8.71398 24.5691C4.91132 24.5691 1.16123 23.4795 0.503029 17.7769V17.6828C-0.415139 9.69863 -0.796784 6.39378 5.96779 5.31521H5.9954C7.43626 5.12715 20.0998 3.63652 21.69 9.30316C22.6745 12.821 22.4118 18.3272 19.9892 21.6016C18.7972 23.2112 17.2015 24.0906 15.3735 24.1266C14.4664 24.1487 13.4873 24.2427 12.4503 24.3395C11.2694 24.4612 9.9889 24.5691 8.71398 24.5691ZM6.26642 7.35896C1.65069 8.09737 1.5954 9.18701 2.54675 17.445V17.539C3.14688 22.7632 6.6066 22.8157 12.2262 22.2764C13.2993 22.1741 14.3143 22.0773 15.296 22.0552C16.4797 22.0275 17.4919 21.4578 18.2994 20.3682C20.2574 17.7188 20.534 12.9426 19.6822 9.85904C18.8553 6.87223 11.0204 6.73947 6.26919 7.35896H6.26642Z" fill="#747B84"/>
<path fill-rule="evenodd" clip-rule="evenodd" d="M11.8759 11L5.58422 11C5.48595 10.9994 5.38913 11.0238 5.30284 11.0708C5.21655 11.1179 5.14359 11.186 5.09081 11.2689C5.03804 11.3518 5.00715 11.4467 5.00106 11.5448C4.99497 11.6429 5.01387 11.7409 5.05599 11.8297L8.46594 19.1419C8.51403 19.2457 8.59156 19.333 8.6889 19.3931C8.78624 19.4531 8.8991 19.4833 9.01343 19.4798C9.12776 19.4762 9.23853 19.4392 9.33197 19.3732C9.42541 19.3072 9.49739 19.2152 9.53898 19.1087L12.4207 11.7965C12.4554 11.7079 12.4679 11.6122 12.4572 11.5177C12.4465 11.4231 12.4128 11.3326 12.359 11.2541C12.3053 11.1756 12.2332 11.1113 12.149 11.0671C12.0648 11.0228 11.971 10.9998 11.8759 11Z" fill="#747B84"/>
<path fill-rule="evenodd" clip-rule="evenodd" d="M16.8759 11L10.5842 11C10.486 10.9994 10.3891 11.0238 10.3028 11.0708C10.2165 11.1179 10.1436 11.186 10.0908 11.2689C10.038 11.3518 10.0072 11.4467 10.0011 11.5448C9.99497 11.6429 10.0139 11.7409 10.056 11.8297L13.4659 19.1419C13.514 19.2457 13.5916 19.333 13.6889 19.3931C13.7862 19.4531 13.8991 19.4833 14.0134 19.4798C14.1278 19.4762 14.2385 19.4392 14.332 19.3732C14.4254 19.3072 14.4974 19.2152 14.539 19.1087L17.4207 11.7965C17.4554 11.7079 17.4679 11.6122 17.4572 11.5177C17.4465 11.4231 17.4128 11.3326 17.359 11.2541C17.3053 11.1756 17.2332 11.1113 17.149 11.0671C17.0648 11.0228 16.971 10.9998 16.8759 11Z" fill="#747B84"/>
</svg>
