<svg width="139" height="150" viewBox="0 0 139 150" fill="none" xmlns="http://www.w3.org/2000/svg">
<path d="M133.662 4.92137C133.242 4.38232 132.705 3.94688 132.09 3.64867C131.476 3.35046 130.802 3.19747 130.119 3.20155C129.095 3.20365 128.102 3.54882 127.298 4.18186L104.579 22.2056L105.181 4.68057C105.202 4.08659 105.105 3.49442 104.896 2.93787C104.688 2.38131 104.371 1.87129 103.966 1.4369C103.56 1.00252 103.073 0.652292 102.532 0.406204C101.991 0.160115 101.407 0.0229737 100.813 0.00264717C100.219 -0.0176794 99.6269 0.0792154 99.0703 0.287745C98.5138 0.496275 98.0037 0.812401 97.5693 1.21804C97.1349 1.62368 96.7846 2.11088 96.5385 2.65188C96.2924 3.19287 96.1553 3.77703 96.135 4.37102L94.8623 41.4676L132.922 11.2675C133.86 10.5232 134.465 9.43705 134.604 8.24734C134.743 7.05764 134.404 5.86153 133.662 4.92137Z" fill="#EB3940"/>
<path d="M54.8247 149.249C31.1771 149.249 7.85638 142.473 3.7632 107.01V106.425C-1.94662 56.774 -4.31996 36.2221 37.747 29.5148H37.9187C46.879 28.3453 125.63 19.0755 135.519 54.3147C141.641 76.1909 140.008 110.433 124.942 130.795C117.53 140.805 107.606 146.274 96.2382 146.497C90.5972 146.635 84.5089 147.22 78.0596 147.822C70.7159 148.578 62.7531 149.249 54.8247 149.249ZM39.6041 42.2243C10.9002 46.8162 10.5563 53.5924 16.4725 104.946V105.531C20.2045 138.019 41.7196 138.345 76.6664 134.992C83.3393 134.355 89.6513 133.753 95.7566 133.616C103.118 133.444 109.412 129.901 114.434 123.125C126.61 106.649 128.33 76.9476 123.033 57.7715C117.891 39.1974 69.1679 38.3719 39.6213 42.2243H39.6041Z" fill="#FCB514"/>
<path fill-rule="evenodd" clip-rule="evenodd" d="M46.9652 67.5228V106.649C46.9615 107.26 47.1132 107.862 47.4056 108.399C47.698 108.935 48.1216 109.389 48.6371 109.717C49.1526 110.045 49.7432 110.237 50.3532 110.275C50.9631 110.313 51.5725 110.196 52.1246 109.934L97.5971 88.7283C98.2425 88.4292 98.7855 87.947 99.1591 87.3417C99.5327 86.7364 99.7202 86.0346 99.6982 85.3236C99.6762 84.6126 99.4459 83.9238 99.0356 83.3427C98.6254 82.7616 98.0532 82.314 97.3906 82.0553L51.9185 64.1348C51.3676 63.9189 50.7723 63.8409 50.1844 63.9077C49.5965 63.9746 49.0335 64.1841 48.5452 64.5181C48.0568 64.8522 47.6575 65.3006 47.3821 65.8243C47.1067 66.348 46.9636 66.9311 46.9652 67.5228Z" fill="#EB3940"/>
</svg>
