<svg width="79" height="24" viewBox="0 0 79 24" fill="none" xmlns="http://www.w3.org/2000/svg">
<path d="M25.9351 16.2564H28.6259C28.7974 17.7084 29.4971 18.3389 31.1703 18.3389C32.777 18.3389 33.5293 17.6558 33.5293 16.7349C33.5293 15.9661 33.084 15.4876 31.3168 15.2304L29.8981 15.0258C27.3179 14.6662 26.242 13.7951 26.242 11.6767C26.242 9.49187 27.8654 7.88507 31.1122 7.88507C34.359 7.88507 35.9796 9.47251 35.9796 11.8481H33.3661C33.2112 10.5843 32.4784 9.93436 31.0431 9.93436C29.6077 9.93436 28.9938 10.5843 28.9938 11.508C28.9938 12.274 29.3505 12.6142 30.8882 12.8382L32.3069 13.0263C34.8513 13.4024 36.2866 14.3593 36.2866 16.5634C36.2866 18.7676 34.5802 20.3882 31.1122 20.3882C27.6442 20.3882 25.9351 18.8699 25.9351 16.2564Z" fill="#231F20"/>
<path d="M42.6254 20.2194V14.9068C42.6254 13.8807 42.2492 13.3331 41.3615 13.3331C40.3686 13.3331 39.7215 14.0356 39.7215 15.2995V20.2194H37.1052V8.0509H39.7215V12.5256C40.1806 11.7568 40.9162 11.2286 42.2105 11.2286C44.2266 11.2286 45.2526 12.2518 45.2526 14.3868V20.2139L42.6254 20.2194Z" fill="#231F20"/>
<path d="M46.0491 15.8112C46.0491 13.0622 47.7084 11.2342 50.662 11.2342C53.6156 11.2342 55.2723 13.0622 55.2723 15.8112C55.2723 18.5602 53.6129 20.3882 50.662 20.3882C47.7112 20.3882 46.0491 18.563 46.0491 15.8112ZM52.6587 15.8112C52.6587 14.0357 51.9425 13.1978 50.662 13.1978C49.3816 13.1978 48.6625 14.0274 48.6625 15.8112C48.6625 17.595 49.3788 18.4247 50.662 18.4247C51.9452 18.4247 52.6671 17.5895 52.6671 15.8112H52.6587Z" fill="#231F20"/>
<path d="M55.759 15.8112C55.759 13.0622 57.4184 11.2342 60.372 11.2342C63.3256 11.2342 64.9849 13.0622 64.9849 15.8112C64.9849 18.5602 63.3256 20.3882 60.372 20.3882C57.4184 20.3882 55.759 18.563 55.759 15.8112ZM62.3715 15.8112C62.3715 14.0357 61.6524 13.1978 60.372 13.1978C59.0915 13.1978 58.3725 14.0274 58.3725 15.8112C58.3725 17.595 59.0915 18.4247 60.372 18.4247C61.6524 18.4247 62.3659 17.5895 62.3659 15.8112H62.3715Z" fill="#231F20"/>
<path d="M66.3151 20.2195V13.2309H64.9849V11.4029H66.3151V10.7889C66.3151 8.82538 67.1448 7.95422 69.1526 7.95422C69.5619 7.95422 70.3307 8.0206 70.7234 8.05655V9.7878H69.7997C69.1857 9.7878 68.912 10.0782 68.912 10.6921V11.3918H70.7234V13.2199H68.912V20.2084L66.3151 20.2195Z" fill="#231F20"/>
<path d="M71.3044 8.97746C71.3044 8.22799 71.8326 7.66382 72.7729 7.66382C73.7132 7.66382 74.258 8.21693 74.258 8.97746C74.258 9.73799 73.7298 10.2939 72.7729 10.2939C71.816 10.2939 71.3044 9.7297 71.3044 8.97746ZM71.4759 20.2195V11.4029H74.0893V20.2195H71.4759Z" fill="#231F20"/>
<path d="M75.0874 8.97746C75.0874 8.22799 75.6156 7.66382 76.5559 7.66382C77.4962 7.66382 78.041 8.21693 78.041 8.97746C78.041 9.73799 77.5128 10.2939 76.5559 10.2939C75.599 10.2939 75.0874 9.7297 75.0874 8.97746ZM75.2589 20.2195V11.4029H77.853V20.2195H75.2589Z" fill="#231F20"/>
<path d="M21.3912 0.791382C21.3238 0.7047 21.2374 0.634678 21.1386 0.586724C21.0398 0.538771 20.9313 0.51417 20.8215 0.514825C20.6569 0.515163 20.4972 0.570669 20.3679 0.672465L16.7146 3.57077L16.8114 0.75266C16.8147 0.657144 16.7991 0.56192 16.7656 0.472424C16.7321 0.382927 16.6812 0.300912 16.616 0.231061C16.5507 0.16121 16.4724 0.104892 16.3854 0.0653196C16.2984 0.0257473 16.2045 0.00369429 16.109 0.000425679C16.0135 -0.00284294 15.9183 0.0127382 15.8288 0.0462709C15.7393 0.0798035 15.6572 0.130638 15.5874 0.195867C15.5175 0.261096 15.4612 0.33944 15.4216 0.426435C15.3821 0.513429 15.36 0.607366 15.3567 0.702882L15.1521 6.6682L21.2723 1.81188C21.4232 1.69218 21.5205 1.51752 21.5427 1.32621C21.565 1.1349 21.5106 0.942564 21.3912 0.791382Z" fill="#EB3940"/>
<path d="M8.71398 24.0001C4.91132 24.0001 1.16123 22.9104 0.503029 17.2078V17.1138C-0.415139 9.1296 -0.796784 5.82475 5.96779 4.74618H5.9954C7.43626 4.55812 20.0998 3.06749 21.69 8.73413C22.6745 12.2519 22.4118 17.7582 19.9892 21.0326C18.7972 22.6422 17.2015 23.5216 15.3735 23.5576C14.4664 23.5797 13.4873 23.6737 12.4503 23.7705C11.2694 23.8922 9.9889 24.0001 8.71398 24.0001ZM6.26642 6.78993C1.65069 7.52834 1.5954 8.61798 2.54675 16.876V16.97C3.14688 22.1941 6.6066 22.2467 12.2262 21.7074C13.2993 21.6051 14.3143 21.5083 15.296 21.4861C16.4797 21.4585 17.4919 20.8888 18.2994 19.7992C20.2574 17.1497 20.534 12.3736 19.6822 9.29001C18.8553 6.3032 11.0204 6.17044 6.26919 6.78993H6.26642Z" fill="#FCB514"/>
<path fill-rule="evenodd" clip-rule="evenodd" d="M7.45021 10.8579V17.1496C7.44961 17.2479 7.47401 17.3447 7.52103 17.431C7.56805 17.5173 7.63617 17.5902 7.71907 17.643C7.80196 17.6958 7.89693 17.7267 7.99501 17.7328C8.0931 17.7389 8.19109 17.72 8.27988 17.6778L15.5921 14.2679C15.6959 14.2198 15.7832 14.1423 15.8433 14.0449C15.9033 13.9476 15.9335 13.8347 15.9299 13.7204C15.9264 13.6061 15.8894 13.4953 15.8234 13.4019C15.7574 13.3084 15.6654 13.2364 15.5589 13.1948L8.24672 10.3131C8.15814 10.2784 8.06241 10.2659 7.96787 10.2766C7.87333 10.2874 7.78281 10.3211 7.70428 10.3748C7.62575 10.4285 7.56154 10.5006 7.51725 10.5848C7.47297 10.669 7.44996 10.7628 7.45021 10.8579Z" fill="#EB3940"/>
</svg>
