<svg width="139" height="150" viewBox="0 0 139 150" fill="none" xmlns="http://www.w3.org/2000/svg">
<path d="M5.82711 4.92137C6.24631 4.38232 6.78399 3.94688 7.3983 3.64867C8.01261 3.35046 8.6872 3.19747 9.37005 3.20155C10.3934 3.20365 11.3867 3.54882 12.1908 4.18186L34.9096 22.2056L34.3075 4.68057C34.2872 4.08659 34.3841 3.49442 34.5926 2.93787C34.8011 2.38131 35.1174 1.87129 35.5231 1.4369C35.9287 1.00252 36.416 0.652292 36.957 0.406204C37.4979 0.160115 38.082 0.0229737 38.6759 0.00264717C39.2699 -0.0176794 39.8619 0.0792154 40.4184 0.287745C40.975 0.496275 41.4851 0.812401 41.9195 1.21804C42.3539 1.62368 42.7042 2.11088 42.9503 2.65188C43.1964 3.19287 43.3335 3.77703 43.3538 4.37102L44.6265 41.4676L6.56694 11.2675C5.62854 10.5232 5.02354 9.43705 4.8849 8.24734C4.74627 7.05764 5.08501 5.86153 5.82711 4.92137Z" fill="#EB3940"/>
<path d="M84.6641 149.249C108.312 149.249 131.632 142.473 135.726 107.01V106.425C141.435 56.774 143.809 36.2221 101.742 29.5148H101.57C92.6098 28.3453 13.859 19.0755 3.96999 54.3147C-2.1526 76.1909 -0.518936 110.433 14.5467 130.795C21.9592 140.805 31.8825 146.274 43.2505 146.497C48.8915 146.635 54.9799 147.22 61.4292 147.822C68.7729 148.578 76.7357 149.249 84.6641 149.249ZM99.8847 42.2243C128.589 46.8162 128.932 53.5924 123.016 104.946V105.531C119.284 138.019 97.7692 138.345 62.8224 134.992C56.1494 134.355 49.8375 133.753 43.7321 133.616C36.3713 133.444 30.0769 129.901 25.0551 123.125C12.8787 106.649 11.1589 76.9476 16.4559 57.7715C21.5982 39.1974 70.3209 38.3719 99.8675 42.2243H99.8847Z" fill="#FCB514"/>
<path fill-rule="evenodd" clip-rule="evenodd" d="M92.5236 67.5228V106.649C92.5273 107.26 92.3756 107.862 92.0832 108.399C91.7908 108.935 91.3672 109.389 90.8517 109.717C90.3361 110.045 89.7456 110.237 89.1356 110.275C88.5257 110.313 87.9163 110.196 87.3641 109.934L41.8916 88.7283C41.2463 88.4292 40.7033 87.947 40.3297 87.3417C39.9561 86.7364 39.7686 86.0346 39.7906 85.3236C39.8125 84.6126 40.0428 83.9238 40.4531 83.3427C40.8634 82.7616 41.4356 82.314 42.0982 82.0553L87.5703 64.1348C88.1212 63.9189 88.7165 63.8409 89.3044 63.9077C89.8923 63.9746 90.4552 64.1841 90.9436 64.5181C91.432 64.8522 91.8313 65.3006 92.1067 65.8243C92.3821 66.348 92.5252 66.9311 92.5236 67.5228Z" fill="#EB3940"/>
</svg>
