<svg width="23" height="23" viewBox="0 0 23 23" fill="none" xmlns="http://www.w3.org/2000/svg">
<g opacity="0.3">
<path d="M20.4444 20.4444H2.55556V2.55556H14.0556V0H2.55556C1.15 0 0 1.15 0 2.55556V20.4444C0 21.85 1.15 23 2.55556 23H20.4444C21.85 23 23 21.85 23 20.4444V8.94444H20.4444V20.4444Z" fill="#231F20"/>
<path d="M17.8889 12.7778H15.3333V17.8889H17.8889V12.7778Z" fill="#231F20"/>
<path d="M7.66667 8.94444H5.11111V17.8889H7.66667V8.94444Z" fill="#231F20"/>
<path d="M12.7778 5.11111H10.2222V17.8889H12.7778V5.11111Z" fill="#231F20"/>
<path d="M20.4444 2.55556V0H17.8889V2.55556H15.3333V5.11111H17.8889V7.66667H20.4444V5.11111H23V2.55556H20.4444Z" fill="#231F20"/>
</g>
</svg>
